<mxfile host="app.diagrams.net" modified="2024-06-03T11:52:42.701Z" agent="Mozilla/5.0 (Windows NT 10.0; Win64; x64) AppleWebKit/537.36 (KHTML, like Gecko) Chrome/121.0.0.0 Safari/537.36" etag="tOskLC-DlfzBzhkNCi1S" version="24.4.13" type="device">
  <diagram name="PÃ¡gina-1" id="KfyF-sTOMx0ndlfaGz6T">
    <mxGraphModel dx="1434" dy="750" grid="1" gridSize="10" guides="1" tooltips="1" connect="1" arrows="1" fold="1" page="0" pageScale="1" pageWidth="827" pageHeight="1169" math="0" shadow="0">
      <root>
        <mxCell id="0" />
        <mxCell id="1" parent="0" />
        <mxCell id="U8h938L70IQ8GRDkYCh5-3" value="&lt;h1&gt;&lt;font style=&quot;font-size: 32px;&quot; face=&quot;Times New Roman&quot;&gt;&lt;i&gt;Compra&lt;/i&gt;&lt;/font&gt;&lt;/h1&gt;" style="text;html=1;align=center;verticalAlign=middle;whiteSpace=wrap;rounded=0;" vertex="1" parent="1">
          <mxGeometry x="300" y="160" width="350" height="80" as="geometry" />
        </mxCell>
        <mxCell id="U8h938L70IQ8GRDkYCh5-6" style="edgeStyle=orthogonalEdgeStyle;rounded=0;orthogonalLoop=1;jettySize=auto;html=1;exitX=0.5;exitY=0.5;exitDx=0;exitDy=0;exitPerimeter=0;entryX=0;entryY=0.5;entryDx=0;entryDy=0;" edge="1" parent="1" source="U8h938L70IQ8GRDkYCh5-4" target="U8h938L70IQ8GRDkYCh5-5">
          <mxGeometry relative="1" as="geometry" />
        </mxCell>
        <mxCell id="U8h938L70IQ8GRDkYCh5-4" value="Cliente" style="shape=umlActor;verticalLabelPosition=bottom;verticalAlign=top;html=1;outlineConnect=0;fillColor=#fff2cc;strokeColor=#d6b656;" vertex="1" parent="1">
          <mxGeometry x="190" y="270" width="70" height="140" as="geometry" />
        </mxCell>
        <mxCell id="U8h938L70IQ8GRDkYCh5-5" value="pedido/compra" style="ellipse;whiteSpace=wrap;html=1;fillColor=#dae8fc;strokeColor=#6c8ebf;" vertex="1" parent="1">
          <mxGeometry x="340" y="300" width="120" height="80" as="geometry" />
        </mxCell>
        <mxCell id="U8h938L70IQ8GRDkYCh5-12" value="" style="edgeStyle=orthogonalEdgeStyle;rounded=0;orthogonalLoop=1;jettySize=auto;html=1;exitX=0.5;exitY=0.5;exitDx=0;exitDy=0;exitPerimeter=0;" edge="1" parent="1" source="U8h938L70IQ8GRDkYCh5-7" target="U8h938L70IQ8GRDkYCh5-11">
          <mxGeometry relative="1" as="geometry">
            <Array as="points" />
          </mxGeometry>
        </mxCell>
        <mxCell id="U8h938L70IQ8GRDkYCh5-7" value="Banco de dados" style="shape=umlActor;verticalLabelPosition=bottom;verticalAlign=top;html=1;outlineConnect=0;fillColor=#fff2cc;strokeColor=#d6b656;" vertex="1" parent="1">
          <mxGeometry x="550" y="270" width="70" height="140" as="geometry" />
        </mxCell>
        <mxCell id="U8h938L70IQ8GRDkYCh5-8" style="edgeStyle=orthogonalEdgeStyle;rounded=0;orthogonalLoop=1;jettySize=auto;html=1;exitX=1;exitY=0.5;exitDx=0;exitDy=0;entryX=0.5;entryY=0.5;entryDx=0;entryDy=0;entryPerimeter=0;" edge="1" parent="1" source="U8h938L70IQ8GRDkYCh5-5" target="U8h938L70IQ8GRDkYCh5-7">
          <mxGeometry relative="1" as="geometry" />
        </mxCell>
        <mxCell id="U8h938L70IQ8GRDkYCh5-11" value="&lt;div&gt;&lt;br&gt;&lt;/div&gt;&lt;div&gt;&lt;br&gt;&lt;/div&gt;&lt;div&gt;estoque&lt;/div&gt;" style="ellipse;whiteSpace=wrap;html=1;verticalAlign=top;fillColor=#dae8fc;strokeColor=#6c8ebf;" vertex="1" parent="1">
          <mxGeometry x="695" y="300" width="125" height="80" as="geometry" />
        </mxCell>
        <mxCell id="U8h938L70IQ8GRDkYCh5-13" value="&lt;h1&gt;&lt;font face=&quot;Times New Roman&quot;&gt;&lt;span style=&quot;font-size: 32px;&quot;&gt;&lt;i&gt;Login&lt;/i&gt;&lt;/span&gt;&lt;/font&gt;&lt;/h1&gt;" style="text;html=1;align=center;verticalAlign=middle;whiteSpace=wrap;rounded=0;" vertex="1" parent="1">
          <mxGeometry x="300" y="530" width="350" height="80" as="geometry" />
        </mxCell>
        <mxCell id="U8h938L70IQ8GRDkYCh5-17" value="" style="edgeStyle=orthogonalEdgeStyle;rounded=0;orthogonalLoop=1;jettySize=auto;html=1;" edge="1" parent="1" source="U8h938L70IQ8GRDkYCh5-15" target="U8h938L70IQ8GRDkYCh5-16">
          <mxGeometry relative="1" as="geometry" />
        </mxCell>
        <mxCell id="U8h938L70IQ8GRDkYCh5-15" value="Cliente" style="shape=umlActor;verticalLabelPosition=bottom;verticalAlign=top;html=1;outlineConnect=0;fillColor=#fff2cc;strokeColor=#d6b656;" vertex="1" parent="1">
          <mxGeometry x="300" y="680" width="70" height="140" as="geometry" />
        </mxCell>
        <mxCell id="U8h938L70IQ8GRDkYCh5-16" value="login/entrar" style="ellipse;whiteSpace=wrap;html=1;fillColor=#dae8fc;strokeColor=#6c8ebf;" vertex="1" parent="1">
          <mxGeometry x="470" y="710" width="120" height="80" as="geometry" />
        </mxCell>
        <mxCell id="U8h938L70IQ8GRDkYCh5-21" value="" style="edgeStyle=orthogonalEdgeStyle;rounded=0;orthogonalLoop=1;jettySize=auto;html=1;" edge="1" parent="1" source="U8h938L70IQ8GRDkYCh5-19" target="U8h938L70IQ8GRDkYCh5-20">
          <mxGeometry relative="1" as="geometry" />
        </mxCell>
        <mxCell id="U8h938L70IQ8GRDkYCh5-19" value="Cliente" style="shape=umlActor;verticalLabelPosition=bottom;verticalAlign=top;html=1;outlineConnect=0;fillColor=#fff2cc;strokeColor=#d6b656;" vertex="1" parent="1">
          <mxGeometry x="300" y="930" width="70" height="140" as="geometry" />
        </mxCell>
        <mxCell id="U8h938L70IQ8GRDkYCh5-20" value="editar conta" style="ellipse;whiteSpace=wrap;html=1;fillColor=#dae8fc;strokeColor=#6c8ebf;" vertex="1" parent="1">
          <mxGeometry x="470" y="960" width="120" height="80" as="geometry" />
        </mxCell>
        <mxCell id="U8h938L70IQ8GRDkYCh5-24" value="" style="edgeStyle=orthogonalEdgeStyle;rounded=0;orthogonalLoop=1;jettySize=auto;html=1;" edge="1" parent="1" source="U8h938L70IQ8GRDkYCh5-22" target="U8h938L70IQ8GRDkYCh5-23">
          <mxGeometry relative="1" as="geometry" />
        </mxCell>
        <mxCell id="U8h938L70IQ8GRDkYCh5-22" value="Cliente" style="shape=umlActor;verticalLabelPosition=bottom;verticalAlign=top;html=1;outlineConnect=0;fillColor=#fff2cc;strokeColor=#d6b656;" vertex="1" parent="1">
          <mxGeometry x="300" y="1180" width="70" height="140" as="geometry" />
        </mxCell>
        <mxCell id="U8h938L70IQ8GRDkYCh5-23" value="cliente colocou e-mail" style="ellipse;whiteSpace=wrap;html=1;fillColor=#dae8fc;strokeColor=#6c8ebf;" vertex="1" parent="1">
          <mxGeometry x="470" y="1210" width="120" height="80" as="geometry" />
        </mxCell>
        <mxCell id="U8h938L70IQ8GRDkYCh5-27" value="" style="edgeStyle=orthogonalEdgeStyle;rounded=0;orthogonalLoop=1;jettySize=auto;html=1;" edge="1" parent="1" source="U8h938L70IQ8GRDkYCh5-25" target="U8h938L70IQ8GRDkYCh5-26">
          <mxGeometry relative="1" as="geometry" />
        </mxCell>
        <mxCell id="U8h938L70IQ8GRDkYCh5-25" value="Cliente" style="shape=umlActor;verticalLabelPosition=bottom;verticalAlign=top;html=1;outlineConnect=0;fillColor=#fff2cc;strokeColor=#d6b656;" vertex="1" parent="1">
          <mxGeometry x="300" y="1430" width="70" height="140" as="geometry" />
        </mxCell>
        <mxCell id="U8h938L70IQ8GRDkYCh5-26" value="cliente colocou senha" style="ellipse;whiteSpace=wrap;html=1;fillColor=#dae8fc;strokeColor=#6c8ebf;" vertex="1" parent="1">
          <mxGeometry x="470" y="1460" width="120" height="80" as="geometry" />
        </mxCell>
      </root>
    </mxGraphModel>
  </diagram>
</mxfile>
